<svg viewBox="0 0 1400 700">
<style type="text/css">
	.st0{fill:#1E2065;}
	.st1{fill:none;stroke:#FFFFFF;stroke-width:0.6527;stroke-miterlimit:10;}
</style>
<path class="st0" d="M707.3,350.9l-7.7,11.5c0,0-5,6.6-0.3,13.5l7.1,10.7c0,0,2.4,5,8.7,4.9l15.6,0.2c0,0,6.6-0.8,8.8-6.5l6.3-10.4
	c0,0,4.3-7.2-1.4-13.2l-7.1-11c0,0-1.7-4.3-8.3-4.3l-13.2-0.2C715.6,346.2,709.8,345.9,707.3,350.9z"/>
<path class="st1" d="M707.8,360v17.9h29v-17.7C736.8,360.2,707.1,360,707.8,360z"/>
<polyline class="st1" points="736.8,360.2 722.6,369.8 707.8,360 "/>
</svg>
