<svg viewBox="0 0 1400 700">
<style type="text/css">
	.st0{fill:#4FA9DE;}
	.st1{fill:#FFFFFF;}
</style>
<path class="st0" d="M707.3,350.9l-7.7,11.5c0,0-5,6.6-0.3,13.5l7.1,10.7c0,0,2.4,5,8.7,4.9l15.6,0.2c0,0,6.6-0.8,8.8-6.5l6.3-10.4
	c0,0,4.3-7.2-1.4-13.2l-7.1-11c0,0-1.7-4.3-8.3-4.3l-13.2-0.2C715.6,346.2,709.8,345.9,707.3,350.9z"/>
<path class="st1" d="M722.2,385.9c0,0,8.2-8.7,10.5-17.3c0,0,4.6-15-10.2-15.4c0,0-15.1-0.5-10.2,15.9
	C712.3,369,717.3,380.5,722.2,385.9z"/>
<circle class="st0" cx="722.7" cy="363.6" r="4.3"/>
</svg>
