<svg version="1.1" id="Layer_1" xmlns="http://www.w3.org/2000/svg" xmlns:xlink="http://www.w3.org/1999/xlink" x="0px" y="0px"
	 viewBox="0 0 1400 700" style="enable-background:new 0 0 1400 700;" xml:space="preserve">
<style type="text/css">
	.st0{opacity:0.8;fill:#283893;}
	.st1{fill:#FFFFFF;}
</style>
<path class="st0" d="M685.5,332.5l-7.7,11.5c0,0-5,6.6-0.3,13.5l7.1,10.7c0,0,2.4,5,8.7,4.9l15.6,0.2c0,0,6.6-0.8,8.8-6.5l6.3-10.4
	c0,0,4.3-7.2-1.4-13.2l-7.1-11c0,0-1.7-4.3-8.3-4.3l-13.2-0.2C693.9,327.8,688.1,327.5,685.5,332.5z"/>
<path class="st1" d="M691.1,337.4l-3.4,3.6c0,0-2.4,3.3,1.3,7.5c0,0,5.2,9.3,15,14.3c0,0,3.8,1.8,7-0.2l3.5-3.5c0,0,1.5-1.3,0.2-3.1
	l-3.7-3.2c0,0-1.9-0.7-3.2,0.9l-2.3,2.4l-9.9-10.2l2.2-2.7c0,0,2-1.3,0.1-3.7l-2.8-2.6C695.2,336.9,692.5,335.7,691.1,337.4z"/>
</svg>
