<svg viewBox="0 0 112.5 133.6">
<style type="text/css">
	.st0{fill:#283894;}
	.st1{fill:none;stroke:#283894;stroke-width:6;stroke-linecap:round;stroke-miterlimit:10;}
</style>
<path class="st0" d="M27.3,15.5c0,0-12.6,8-13.5,23.9c0,0-0.9,14.2,5.5,26.6c0,0,13.1,27.5,25.7,39.7c0,0,7.3,8.9,18.6,11.3
	c0,0,15.5,2.4,24.6-4.2c0,0,5.3-2.4,1.6-9.8c0,0-6.9-10.9-12.9-16c0,0-4-5.1-9.1-0.2l-4.2,4.9c0,0-4.4,3.3-8-1.8
	c0,0-14.9-15.5-21.3-35.9c0,0-2.2-7.3,3.8-9.8l7.3-1.8c0,0,4-0.4,2.4-7.3c0,0-2-10-9.1-19.5C38.8,15.7,34.6,10,27.3,15.5z"/>
<path class="st1" d="M56.1,47c0,0,19.3,9.3,16.6,27.7"/>
<path class="st1" d="M58.3,35.2c0,0,29.3,9.8,25.3,42.6"/>
<path class="st1" d="M62.7,24.8c0,0,37.2,12,31.9,55.2"/>
<path class="st0" d="M12.9,216.5v5.7c0,1.2-0.1,2.3-0.1,3.5"/>
</svg>
